{"title":"Gangs of New York [2002] Remastered BRRip XviD  - CODY","uid":7280594,"size":1259740273,"categoryP":"video","categoryS":"movies","magnet":"?xt=urn:btih:373016ba4088aa7612eed4b754783748a8b23734&amp;dn=Gangs+of+New+York+%5B2002%5D+Remastered+BRRip+XviD++-+CODY&amp;tr=udp%3A%2F%2Ftracker.openbittorrent.com%3A80&amp;tr=udp%3A%2F%2Fopen.demonii.com%3A1337&amp;tr=udp%3A%2F%2Ftracker.coppersurfer.tk%3A6969&amp;tr=udp%3A%2F%2Fexodus.desync.com%3A6969","seeders":1,"leechers":0,"uploader":"CODYBOSS1969","files":5,"time":1337385665,"description":"General\nComplete name                            : Gangs of New York [2002] Remastered BRRip XviD  - CODY.avi\nFormat                                   : AVI\nFormat/Info                              : Audio Video Interleave\nFile size                                : 1.17 GiB\nDuration                                 : 2h 46mn\nOverall bit rate                         : 1 008 Kbps\nWriting application                      : VirtualDubMod 1.5.10.3 | www.virtualdub-fr.org || (build 2550/release)\nWriting library                          : VirtualDubMod build 2550/release\n\nVideo\nID                                       : 0\nFormat                                   : MPEG-4 Visual\nFormat profile                           : Advanced Simple@L5\nFormat settings, BVOP                    : 4\nFormat settings, QPel                    : No\nFormat settings, GMC                     : No warppoints\nFormat settings, Matrix                  : Default (H.263)\nCodec ID                                 : XVID\nCodec ID/Hint                            : XviD\nDuration                                 : 2h 46mn\nBit rate                                 : 871 Kbps\nWidth                                    : 720 pixels\nHeight                                   : 304 pixels\nDisplay aspect ratio                     : 2.35:1\nFrame rate                               : 23.976 fps\nColor space                              : YUV\nChroma subsampling                       : 4:2:0\nBit depth                                : 8 bits\nScan type                                : Progressive\nCompression mode                         : Lossy\nBits/(Pixel*Frame)                       : 0.166\nStream size                              : 1.01 GiB (86%)\nWriting library                          : XviD 1.2.1 (UTC 2008-12-04)\n\nAudio\nID                                       : 1\nFormat                                   : MPEG Audio\nFormat version                           : Version 1\nFormat profile                           : Layer 3\nCodec ID                                 : 55\nCodec ID/Hint                            : MP3\nDuration                                 : 2h 46mn\nBit rate mode                            : Constant\nBit rate                                 : 128 Kbps\nChannel(s)                               : 2 channels\nSampling rate                            : 48.0 KHz\nCompression mode                         : Lossy\nStream size                              : 153 MiB (13%)\nAlignment                                : Aligned on interleaves\nInterleave, duration                     : 42 ms (1.00 video frame)\nInterleave, preload duration             : 504 ms\nWriting library                          : L3.99r\nEncoding settings                        : -m s -V 4 -q 2 -lowpass 17 -b 128\n\n\n\nIMDB link:                                 &lt;a href=&quot; http://www.imdb.com/title/tt0217505/&quot; rel=&quot;nofollow&quot; target=&quot;_NEW&quot;&gt; http://www.imdb.com/title/tt0217505/&lt;/a&gt;\n\n\n\nSubtitles included                       : Romanian\n\n\n\nPlease seed at least 1,5:1 . This way this torrent has a chance to survive !\n\n\n\nThanks. Enjoy !!","torrent":{"xt":"urn:btih:373016ba4088aa7612eed4b754783748a8b23734","amp;dn":"Gangs+of+New+York+%5B2002%5D+Remastered+BRRip+XviD++-+CODY","amp;tr":["udp%3A%2F%2Ftracker.openbittorrent.com%3A80","udp%3A%2F%2Fopen.demonii.com%3A1337","udp%3A%2F%2Ftracker.coppersurfer.tk%3A6969","udp%3A%2F%2Fexodus.desync.com%3A6969"],"infoHash":"373016ba4088aa7612eed4b754783748a8b23734","infoHashBuffer":{"type":"Buffer","data":[55,48,22,186,64,136,170,118,18,238,212,183,84,120,55,72,168,178,55,52]},"announce":[],"urlList":[]}}